<?xml version="1.0" standalone="no"?>
<!DOCTYPE svg PUBLIC "-//W3C//DTD SVG 20010904//EN"
 "http://www.w3.org/TR/2001/REC-SVG-20010904/DTD/svg10.dtd">
<svg version="1.0" xmlns="http://www.w3.org/2000/svg"
 width="732.000000pt" height="732.000000pt" viewBox="0 0 732.000000 732.000000"
 preserveAspectRatio="xMidYMid meet">

<g transform="translate(0.000000,732.000000) scale(0.100000,-0.100000)"
fill="#000000" stroke="none">
<path d="M3285 5880 c-301 -25 -568 -98 -835 -226 -252 -122 -447 -260 -645
-459 -199 -198 -337 -393 -459 -645 -87 -181 -136 -327 -190 -562 l-6 -28 118
0 118 0 27 104 c91 362 281 691 556 967 180 180 338 293 561 404 297 148 593
217 935 217 472 0 892 -141 1275 -425 122 -91 326 -295 417 -417 171 -231 294
-485 360 -746 l27 -104 118 0 118 0 -6 28 c-74 326 -193 614 -351 848 -188
280 -450 533 -733 707 -181 111 -438 218 -654 273 -218 55 -535 82 -751 64z"/>
<path d="M2625 4534 c-128 -20 -239 -76 -331 -168 -114 -114 -168 -242 -168
-401 0 -154 51 -279 159 -394 109 -115 248 -175 410 -175 259 0 475 165 551
420 24 79 24 219 0 298 -58 195 -205 343 -394 400 -57 16 -178 27 -227 20z
m248 -181 c89 -42 168 -121 210 -210 30 -64 32 -75 32 -178 0 -103 -2 -114
-32 -178 -42 -89 -121 -168 -210 -210 -64 -30 -75 -32 -178 -32 -103 0 -114 2
-178 32 -89 42 -168 121 -210 210 -30 64 -32 75 -32 178 0 103 2 114 32 178
37 77 116 163 184 198 79 40 119 49 219 46 83 -2 104 -7 163 -34z"/>
<path d="M1116 3303 c10 -104 50 -318 79 -417 115 -397 307 -721 604 -1017
352 -352 741 -558 1241 -656 127 -25 152 -27 425 -27 273 0 298 2 425 27 500
98 889 304 1241 656 297 296 489 620 604 1017 29 99 69 313 79 417 l7 67 -124
0 -124 0 -12 -92 c-48 -377 -203 -747 -437 -1043 -35 -44 -82 -102 -106 -128
l-43 -48 -74 66 c-821 741 -1594 1007 -2276 784 -126 -41 -333 -146 -444 -226
-99 -71 -311 -269 -371 -347 -19 -25 -38 -45 -43 -46 -14 0 -128 183 -187 300
-107 214 -174 428 -207 661 l-16 119 -124 0 -124 0 7 -67z m2309 -493 c188
-41 427 -129 580 -215 56 -31 65 -33 93 -23 27 11 35 9 59 -8 16 -12 33 -35
38 -52 8 -24 38 -50 130 -113 189 -129 535 -413 535 -439 0 -6 -35 -38 -77
-72 -335 -266 -736 -424 -1172 -459 -492 -40 -1032 124 -1431 434 -98 76 -213
181 -270 247 l-51 59 76 89 c250 299 588 503 940 567 120 22 418 14 550 -15z"/>
</g>
</svg>
